# xmcd
#
# Track frame offsets:
#	150
#	13972
#	30695
#	44160
#	59620
#	76452
#	92772
#	110860
#	120650
#	128267
#	143197
#	156357
#
# Disc length: 2261 seconds
#
# Revision: 2
# Processed by: cddbd v1.4PL0 Copyright (c) Steve Scherf et al.
# Submitted via: EasyCDDAExtractor 5.0.6
#
DISCID=ab08d30c
DTITLE=Overnight Jones - My Private Train
DYEAR=1994
DGENRE=Blues
TTITLE0=She Lies
TTITLE1=Head Over Heels
TTITLE2=Respectability
TTITLE3=My Beaten Heart
TTITLE4=Door To Door
TTITLE5=Leave Me
TTITLE6=Bernie
TTITLE7=Is That What They're Saying
TTITLE8=Take Me In
TTITLE9=Gypsy Girl
TTITLE10=Shut Your Mouth
TTITLE11=Just A Little Further
EXTD=
EXTT0=
EXTT1=
EXTT2=
EXTT3=
EXTT4=
EXTT5=
EXTT6=
EXTT7=
EXTT8=
EXTT9=
EXTT10=
EXTT11=
PLAYORDER=
